<?xml version="1.0" encoding="utf-8"?>
<svg xmlns="http://www.w3.org/2000/svg" height="213px" version="1.1" viewBox="0 0 107 213" width="107px">
    <title>award right</title>
    <g fill="none" fill-rule="evenodd" id="award-right" stroke="none" stroke-width="1">
        <g fill="#FFFFFF" id="Group-2" transform="translate(0.089460, 0.000000)">
            <path d="M39.744143,199.723939 C39.744143,199.723939 48.6437212,191.301338 57.4763026,188.826455 C66.3098839,186.351573 76.5533984,188.044392 76.6416255,190.900557 C76.7003915,192.815466 65.4599242,203.91014 55.6083911,206.201132 C42.8389963,209.170291 39.744143,199.723939 39.744143,199.723939" id="Fill-1"/>
            <path d="M44.893899,188.362677 C44.893899,188.362677 39.3381623,181.97478 39.154171,175.555384 C38.9711797,169.136088 42.8909939,161.630344 45.4988703,161.527249 C47.2477874,161.458152 54.6784352,169.52037 54.4584456,176.686631 C54.1724592,185.97449 44.893899,188.362677 44.893899,188.362677" id="Fill-2"/>
            <path d="M62.1840795,166.815698 C62.1840795,166.815698 55.1174144,161.801136 53.4614929,155.745123 C51.8045714,149.68921 54.0384655,141.829983 56.645342,141.241111 C58.3932591,140.846429 67.7348164,147.096633 69.1547491,153.937209 C70.9946619,162.803089 62.1840795,166.815698 62.1840795,166.815698" id="Fill-3"/>
            <path d="M74.1905104,141.524297 C74.1905104,141.524297 65.7489105,138.372247 62.4720658,133.062898 C59.1962211,127.75345 59.3532136,119.905122 61.8180968,118.785175 C63.4710185,118.033211 74.5284944,121.84533 77.7763405,127.941241 C81.984141,135.841766 74.1905104,141.524297 74.1905104,141.524297" id="Fill-4"/>
            <path d="M80.5372096,115.316339 C80.5372096,115.316339 71.3456453,113.785412 66.9098555,109.293625 C62.4730658,104.801838 60.9621374,97.2881937 63.2120308,95.7882648 C64.7199593,94.7823125 76.6923918,96.4862317 81.267175,101.732983 C87.195894,108.533661 80.5372096,115.316339 80.5372096,115.316339" id="Fill-5"/>
            <path d="M80.8061969,88.8115955 C80.8061969,88.8115955 71.1386551,89.5985582 65.3759282,86.500705 C59.6122014,83.4018519 55.9013772,76.8001648 57.7192911,74.8692563 C58.9382333,73.5753176 71.4466405,72.279379 77.5683503,76.0452006 C85.5029743,80.9259692 80.8061969,88.8115955 80.8061969,88.8115955" id="Fill-6"/>
            <path d="M73.7615308,63.8437789 C73.7615308,63.8437789 64.3329776,67.046627 57.5982968,65.676692 C50.864616,64.305757 45.0888897,59.1889995 46.305832,56.9481057 C47.1217934,55.4451769 59.2342193,51.0463854 66.5358732,52.9382957 C75.9994247,55.3891796 73.7615308,63.8437789 73.7615308,63.8437789" id="Fill-7"/>
            <path d="M61.0801318,42.023813 C61.0801318,42.023813 52.5605356,47.3075626 45.4028748,47.6295473 C38.246214,47.9515321 30.9535597,44.5076953 31.5175329,42.1018093 C31.895515,40.4878858 42.7580002,33.4322202 50.6376267,33.4660962 C60.8491427,33.5102165 61.0801318,42.023813 61.0801318,42.023813" id="Fill-8"/>
            <path d="M46.4468254,26.4925491 C46.4468254,26.4925491 35.8603271,32.5142637 29.4366316,32.7422529 C23.012936,32.9702421 16.4952449,29.7693938 17.0192201,27.5844974 C17.3702035,26.1185669 27.1657392,19.7958665 34.2344042,19.8978617 C43.39597,20.0308554 45.8488537,26.6455419 45.8488537,26.6455419" id="Fill-9"/>
            <path d="M59.0842264,176.442042 C59.0842264,176.442042 65.5029222,167.905547 72.9805678,164.435911 C80.4572134,160.966276 89.9867618,160.821883 90.6047325,163.236468 C91.0177129,164.855391 82.997093,176.025662 74.5684925,179.496497 C63.6450102,183.994784 59.0842264,176.442042 59.0842264,176.442042" id="Fill-10"/>
            <path d="M73.7645306,151.711614 C73.7645306,151.711614 77.7803403,142.274462 84.3010312,137.301197 C90.8217222,132.327933 100.348271,129.967045 101.654209,132.068045 C102.530167,133.476679 97.6543983,145.737297 90.1797526,150.933851 C80.4912118,157.668832 73.7645306,151.711614 73.7645306,151.711614" id="Fill-11"/>
            <path d="M82.1281342,125.031979 C82.1281342,125.031979 84.0700422,115.324339 89.5367831,109.39962 C95.003524,103.474901 104.087093,99.4810898 105.875009,101.239006 C107.072952,102.416951 104.894055,114.966356 98.5143576,121.279057 C90.2457495,129.459669 82.1281342,125.031979 82.1281342,125.031979" id="Fill-12"/>
            <path d="M84.1820369,98.7451247 C84.1820369,98.7451247 83.4250727,89.2545745 87.2648908,82.4808955 C91.1037088,75.7072166 99.1143291,69.9044916 101.400221,71.1324334 C102.933148,71.9553944 104.244086,84.1488165 99.5963063,91.4934684 C93.5715918,101.011017 84.1820369,98.7451247 84.1820369,98.7451247" id="Fill-13"/>
            <path d="M79.9242387,72.6423643 C79.9242387,72.6423643 76.6183954,63.9277749 78.6622985,56.7441153 C80.7062016,49.5604558 87.2068935,42.3657968 89.833769,43.0117662 C91.5956855,43.4437457 96.184468,54.5642187 93.4795962,62.4598444 C89.9737624,72.6933594 79.9242387,72.6423643 79.9242387,72.6423643" id="Fill-14"/>
            <path d="M68.7817668,48.8774882 C68.7817668,48.8774882 63.7410057,41.0498592 64.4029743,33.8322013 C65.0649429,26.6145434 70.2246984,18.6719198 73.0055666,18.8699104 C74.8684783,19.0019042 81.6751557,28.9314335 80.4842121,36.9380541 C78.9412853,47.3145623 68.7817668,48.8774882 68.7817668,48.8774882" id="Fill-15"/>
            <path d="M53.0145141,31.2563234 C53.0145141,31.2563234 46.2468348,24.7356324 45.2198835,17.7789621 C44.1939321,10.8222918 47.4157794,2.37969198 50.1916479,2.07270653 C52.0525597,1.86671629 61.0431336,10.0653277 61.7341008,17.8639581 C62.6290584,27.9694791 53.0145141,31.2563234 53.0145141,31.2563234" id="Fill-16"/>
            <path d="M28.7546639,14.8661002 C28.7546639,14.8661002 18.3771557,16.9410018 12.294444,13.8271494 C6.94169772,11.0872793 4.4208172,6.66048909 0.111021467,4.89957255 C-1.38590759,4.2866016 12.5574316,-4.19899622 23.6689049,2.66767833 C31.9085144,7.759437 28.7546639,14.8661002 28.7546639,14.8661002" id="Fill-17"/>
            <path d="M30.5795774,212.017656 C41.7530478,202.210121 57.2963111,186.493566 69.2847429,166.106732 C78.9432852,149.68191 86.2499389,130.242332 87.3758855,108.55966 C88.4758334,82.2869047 80.95019,61.962868 70.5116848,46.6505937 C50.7046236,17.5979707 20.5700518,6.66748876 20.5700518,6.66748876 C19.4831033,6.25650823 18.2691609,6.80548222 17.8581803,7.89143075 C17.4481998,8.97737928 17.9971737,10.1923217 19.0831223,10.6023023 C19.0831223,10.6023023 47.4307787,21.7717729 65.7529103,49.8264432 C75.2724591,64.4007525 82.0891361,83.5658441 80.6682034,108.225675 C79.6902498,128.792701 72.72158,147.200928 63.7050074,162.859786 C52.278549,182.702245 37.5182485,198.163813 26.832755,207.807556 C25.67081,208.841607 25.566815,210.624422 26.600766,211.786167 C27.634717,212.948012 29.4176325,213.051707 30.5795774,212.017656 Z" id="Fill-18"/>
        </g>
    </g>
</svg>