<?xml version="1.0" encoding="utf-8"?>
<svg xmlns="http://www.w3.org/2000/svg" height="213px" version="1.1" viewBox="0 0 107 213" width="107px">
    <title>award left</title>
    <g fill="none" fill-rule="evenodd" id="award-left" stroke="none" stroke-width="1">
        <g fill="#FFFFFF" id="Group" transform="translate(0.000000, 0.000000)">
            <path d="M66.4446555,199.723939 C66.4446555,199.723939 57.5450773,191.301338 48.712196,188.826455 C39.8792146,186.351573 29.6359001,188.044392 29.5471707,190.900557 C29.4881071,192.815466 40.7287743,203.91014 50.5808074,206.201132 C63.3498022,209.170291 66.4446555,199.723939 66.4446555,199.723939" id="Fill-19"/>
            <path d="M61.2948996,188.362677 C61.2948996,188.362677 66.8506363,181.97478 67.0346276,175.555384 C67.2186188,169.136088 63.2978047,161.630344 60.6899283,161.527249 C58.9410112,161.458152 51.5103633,169.52037 51.7303529,176.686631 C52.0163394,185.97449 61.2948996,188.362677 61.2948996,188.362677" id="Fill-20"/>
            <path d="M44.0044191,166.815698 C44.0044191,166.815698 51.0713842,161.801136 52.7273057,155.745123 C54.3842271,149.68921 52.150333,141.829983 49.5435566,141.241111 C47.7959394,140.846429 38.4541822,147.096633 37.0343494,153.937209 C35.1941367,162.803089 44.0044191,166.815698 44.0044191,166.815698" id="Fill-21"/>
            <path d="M31.9986881,141.524297 C31.9986881,141.524297 40.440388,138.372247 43.7165327,133.062898 C46.9927775,127.75345 46.8358849,119.905122 44.3708017,118.785175 C42.7180801,118.033211 31.6600042,121.84533 28.4128581,127.941241 C24.2043575,135.841766 31.9986881,141.524297 31.9986881,141.524297" id="Fill-22"/>
            <path d="M25.6516889,115.316339 C25.6516889,115.316339 34.8428533,113.785412 39.2792431,109.293625 C43.7157328,104.801838 45.2269612,97.2881937 42.9772678,95.7882648 C41.4689393,94.7823125 29.4963067,96.4862317 24.9219235,101.732983 C18.9932045,108.533661 25.6516889,115.316339 25.6516889,115.316339" id="Fill-23"/>
            <path d="M25.3830017,88.8115955 C25.3830017,88.8115955 35.0504435,89.5985582 40.8133703,86.500705 C46.5762972,83.4018519 50.2879213,76.8001648 48.4695075,74.8692563 C47.2502653,73.5753176 34.7423581,72.279379 28.6202482,76.0452006 C20.6858243,80.9259692 25.3830017,88.8115955 25.3830017,88.8115955" id="Fill-24"/>
            <path d="M32.4275678,63.8437789 C32.4275678,63.8437789 41.8559209,67.046627 48.5902018,65.676692 C55.3241826,64.305757 61.0999088,59.1889995 59.8829665,56.9481057 C59.0670052,55.4451769 46.9545793,51.0463854 39.6527253,52.9382957 C30.1890739,55.3891796 32.4275678,63.8437789 32.4275678,63.8437789" id="Fill-25"/>
            <path d="M45.1086668,42.023813 C45.1086668,42.023813 53.628263,47.3075626 60.7859237,47.6295473 C67.9425845,47.9515321 75.2352389,44.5076953 74.6712656,42.1018093 C74.2932835,40.4878858 63.4307984,33.4322202 55.5511718,33.4660962 C45.3396558,33.5102165 45.1086668,42.023813 45.1086668,42.023813" id="Fill-26"/>
            <path d="M59.7419732,26.4925491 C59.7419732,26.4925491 70.3294714,32.5142637 76.752167,32.7422529 C83.1758625,32.9702421 89.6935536,29.7693938 89.1705784,27.5844974 C88.8185951,26.1185669 79.0230594,19.7958665 71.9543944,19.8978617 C62.7928286,20.0308554 60.3399449,26.6455419 60.3399449,26.6455419" id="Fill-27"/>
            <path d="M47.1042722,176.442042 C47.1042722,176.442042 40.6862764,167.905547 33.2088308,164.435911 C25.7314852,160.966276 16.2017368,160.821883 15.5846661,163.236468 C15.1709857,164.855391 23.1916055,176.025662 31.6200061,179.496497 C42.5435883,183.994784 47.1042722,176.442042 47.1042722,176.442042" id="Fill-28"/>
            <path d="M32.4242679,151.711614 C32.4242679,151.711614 28.4083583,142.274462 21.8878673,137.301197 C15.3672764,132.327933 5.8405279,129.967045 4.5343898,132.068045 C3.65863131,133.476679 8.53460021,145.737297 16.0095459,150.933851 C25.6974868,157.668832 32.4242679,151.711614 32.4242679,151.711614" id="Fill-29"/>
            <path d="M24.0609643,125.031979 C24.0609643,125.031979 22.1185564,115.324339 16.6517155,109.39962 C11.1849746,103.474901 2.10160511,99.4810898 0.314389814,101.239006 C-0.883853394,102.416951 1.29524333,114.966356 7.67494096,121.279057 C15.9434491,129.459669 24.0609643,125.031979 24.0609643,125.031979" id="Fill-30"/>
            <path d="M22.0069617,98.7451247 C22.0069617,98.7451247 22.7634258,89.2545745 18.9243078,82.4808955 C15.0850897,75.7072166 7.07416943,69.9044916 4.78857776,71.1324334 C3.25625038,71.9553944 1.94481254,84.1488165 6.59309223,91.4934684 C12.6174067,101.011017 22.0069617,98.7451247 22.0069617,98.7451247" id="Fill-31"/>
            <path d="M26.2648599,72.6423643 C26.2648599,72.6423643 29.5708032,63.9277749 27.5265001,56.7441153 C25.482297,49.5604558 18.982505,42.3657968 16.3548296,43.0117662 C14.5931131,43.4437457 10.0045305,54.5642187 12.7094023,62.4598444 C16.2151362,72.6933594 26.2648599,72.6423643 26.2648599,72.6423643" id="Fill-32"/>
            <path d="M37.4074318,48.8774882 C37.4074318,48.8774882 42.4478929,41.0498592 41.7858243,33.8322013 C41.1237556,26.6145434 35.9638002,18.6719198 33.1838319,18.8699104 C31.3200203,19.0019042 24.5141429,28.9314335 25.7044864,36.9380541 C27.2472133,47.3145623 37.4074318,48.8774882 37.4074318,48.8774882" id="Fill-33"/>
            <path d="M53.1742845,31.2563234 C53.1742845,31.2563234 59.9419637,24.7356324 60.9689151,17.7789621 C61.9958664,10.8222918 58.7730191,2.37969198 55.9971507,2.07270653 C54.1362389,1.86671629 45.146065,10.0653277 44.4551977,17.8639581 C43.5596402,27.9694791 53.1742845,31.2563234 53.1742845,31.2563234" id="Fill-34"/>
            <path d="M77.4341347,14.8661002 C77.4341347,14.8661002 87.8116428,16.9410018 93.8953545,13.8271494 C99.2471008,11.0872793 101.767981,6.66048909 106.077777,4.89957255 C107.574706,4.2866016 93.631367,-4.19899622 82.5198936,2.66767833 C74.2802842,7.759437 77.4341347,14.8661002 77.4341347,14.8661002" id="Fill-35"/>
            <path d="M79.3570435,207.807556 C68.67055,198.163813 53.9102496,182.702245 42.4839912,162.859786 C33.4670185,147.200928 26.4985488,128.792701 25.5208951,108.225675 C24.0999625,83.5658441 30.9164394,64.4007525 40.4355882,49.8264432 C58.7580198,21.7717729 87.1056763,10.6023023 87.1056763,10.6023023 C88.1916248,10.1923217 88.7405988,8.97737928 88.3306182,7.89143075 C87.9206377,6.80548222 86.7056952,6.25650823 85.6197467,6.66748876 C85.6197467,6.66748876 55.485175,17.5979707 35.6773138,46.6505937 C25.2383085,61.962868 17.7131652,82.2869047 18.8128131,108.55966 C19.9389597,130.242332 27.2459134,149.68191 36.9041556,166.106732 C48.8921874,186.493566 64.4357507,202.210121 75.6092212,212.017656 C76.7711661,213.051707 78.5540816,212.948012 79.5880326,211.786167 C80.6219836,210.624422 80.5179885,208.841607 79.3570435,207.807556 Z" id="Fill-36"/>
        </g>
    </g>
</svg>